<svg xmlns="http://www.w3.org/2000/svg" viewBox="0 0 511.999 511.999"><path d="M498.827 377.633l-63.65-63.65c-17.548-17.547-46.102-17.547-63.65 0l-28.93 28.93c-13.294 13.294-34.926 13.3-48.215.005l-125.4-125.507c-13.325-13.325-13.327-34.892 0-48.22l28.93-28.93c17.47-17.47 17.715-45.935-.017-63.665l-63.632-63.432C116.717-4.38 88.164-4.38 70.663 13.12L47.47 36.11c-63.28 63.28-63.28 166.242-.003 229.52L246.16 464.426c63.428 63.43 166.088 63.434 229.52 0l23.146-23.145c17.548-17.548 17.548-46.1 0-63.648zM91.833 34.382c5.85-5.85 15.365-5.85 21.233.016l63.632 63.432c5.863 5.863 5.863 15.352 0 21.216l-10.61 10.608-84.8-84.8 10.554-10.462zm175.547 408.83L68.687 244.415C19.73 195.457 17.038 118.582 60.41 66.41l84.564 84.564c-22.22 25.19-21.294 63.572 2.787 87.653l125.396 125.5c24.06 24.06 62.44 25.046 87.66 2.796l84.566 84.566c-52.007 43.298-128.71 41.02-178.004-8.276zm210.232-23.148l-10.61 10.61-84.865-84.866 10.607-10.608c5.85-5.85 15.367-5.85 21.217 0l63.65 63.65c5.85 5.85 5.85 15.368.001 21.216z"/></svg>